<svg width="69" height="22" fill="none" xmlns="http://www.w3.org/2000/svg"><path d="m32.096 17-3.68-11.2h1.808l2.768 8.624h-.48L35.216 5.8h1.28l2.704 8.624h-.48L41.488 5.8h1.808L39.616 17h-1.28l-2.72-8.608h.48L33.376 17h-1.28Zm11.568 0V9.32h1.76V17h-1.76Zm1.76-4.272-.608-.304c0-.97.213-1.755.64-2.352.437-.608 1.093-.912 1.967-.912.384 0 .731.07 1.04.208.31.139.598.363.864.672l-1.151 1.184a1.214 1.214 0 0 0-.465-.32 1.68 1.68 0 0 0-.591-.096c-.491 0-.896.155-1.216.464-.32.31-.48.795-.48 1.456ZM50.194 17V9.32h1.76V17h-1.76Zm.88-9.088c-.299 0-.55-.101-.752-.304a1.051 1.051 0 0 1-.288-.752c0-.299.096-.55.288-.752a1.02 1.02 0 0 1 .752-.304c.31 0 .56.101.752.304.192.203.288.453.288.752s-.096.55-.288.752c-.192.203-.442.304-.752.304ZM55.097 17V6.12h1.76V17h-1.76Zm-1.84-6.08v-1.6h5.44v1.6h-5.44ZM59.992 17V9.32h1.76V17h-1.76Zm.88-9.088c-.299 0-.55-.101-.752-.304a1.051 1.051 0 0 1-.288-.752c0-.299.096-.55.288-.752a1.02 1.02 0 0 1 .752-.304c.31 0 .56.101.752.304.192.203.288.453.288.752s-.096.55-.288.752c-.192.203-.443.304-.752.304ZM64.894 17V6.12h1.76V17h-1.76Zm-1.84-6.08v-1.6h5.44v1.6h-5.44Z" fill="#dcdcdc"/><circle cx="11" cy="11" r="10" stroke="#dcdcdc" stroke-width="2"/><path fill-rule="evenodd" clip-rule="evenodd" d="M7.396 9.264a4 4 0 0 1 7.466.695l1.026-.01a5 5 0 0 0-9.799.103l1.027-.011c.065-.263.158-.524.28-.777Zm7.488 2.695a4 4 0 0 1-7.746.082l-1.026.01a5 5 0 0 0 9.799-.103l-1.027.011Zm1.117-.903c0-.07 0-.14-.002-.21l.002.21Zm-10 .098L6 10.944c0 .07 0 .14.002.21Z" fill="#dcdcdc"/></svg>